<svg width="48" height="48" viewBox="0 0 48 48" fill="none" xmlns="http://www.w3.org/2000/svg">
<path d="M42.0002 24C42.0002 24.3978 41.8422 24.7794 41.5609 25.0607C41.2796 25.342 40.898 25.5 40.5002 25.5H11.1208L22.0615 36.4388C22.2008 36.5781 22.3114 36.7436 22.3868 36.9257C22.4622 37.1077 22.501 37.3029 22.501 37.5C22.501 37.6971 22.4622 37.8923 22.3868 38.0743C22.3114 38.2564 22.2008 38.4219 22.0615 38.5613C21.9221 38.7006 21.7566 38.8112 21.5745 38.8866C21.3925 38.962 21.1973 39.0008 21.0002 39.0008C20.8031 39.0008 20.6079 38.962 20.4259 38.8866C20.2438 38.8112 20.0783 38.7006 19.939 38.5613L6.43895 25.0613C6.29949 24.9219 6.18885 24.7565 6.11336 24.5744C6.03788 24.3923 5.99902 24.1971 5.99902 24C5.99902 23.8029 6.03788 23.6077 6.11336 23.4256C6.18885 23.2435 6.29949 23.0781 6.43895 22.9388L19.939 9.43875C20.2204 9.15729 20.6022 8.99917 21.0002 8.99917C21.3983 8.99917 21.78 9.15729 22.0615 9.43875C22.3429 9.72021 22.501 10.102 22.501 10.5C22.501 10.898 22.3429 11.2798 22.0615 11.5613L11.1208 22.5H40.5002C40.898 22.5 41.2796 22.658 41.5609 22.9393C41.8422 23.2206 42.0002 23.6022 42.0002 24Z" fill="white"/>
</svg>
