<svg width="24" height="44" viewBox="0 0 24 44" fill="none" xmlns="http://www.w3.org/2000/svg">
<path d="M23.4151 23.415L3.41514 43.415C3.22932 43.6008 3.00871 43.7482 2.76593 43.8488C2.52314 43.9494 2.26293 44.0011 2.00014 44.0011C1.73735 44.0011 1.47713 43.9494 1.23434 43.8488C0.991556 43.7482 0.770955 43.6008 0.585135 43.415C0.399314 43.2292 0.251913 43.0086 0.151348 42.7658C0.0507828 42.523 -0.000976563 42.2628 -0.000976562 42C-0.000976563 41.7372 0.0507828 41.477 0.151348 41.2342C0.251913 40.9914 0.399314 40.7708 0.585135 40.585L19.1726 22L0.585135 3.41501C0.209853 3.03973 -0.000976566 2.53074 -0.000976562 2.00001C-0.000976559 1.46929 0.209853 0.960295 0.585135 0.585013C0.960416 0.209732 1.46941 -0.00109863 2.00014 -0.00109863C2.53086 -0.00109864 3.03986 0.209732 3.41514 0.585013L23.4151 20.585C23.6011 20.7708 23.7486 20.9913 23.8493 21.2341C23.9499 21.4769 24.0017 21.7372 24.0017 22C24.0017 22.2628 23.9499 22.5231 23.8493 22.7659C23.7486 23.0087 23.6011 23.2293 23.4151 23.415Z" fill="#363B42"/>
</svg>
