<svg width="167" height="76" viewBox="0 0 167 76" fill="none" xmlns="http://www.w3.org/2000/svg">
<g filter="url(#filter0_d_534_1749)">
<rect x="9" y="8" width="147" height="56" rx="12" fill="url(#paint0_linear_534_1749)"/>
</g>
<path d="M71.792 35.552C71.792 33.888 72.152 32.408 72.872 31.112C73.592 29.8 74.592 28.784 75.872 28.064C77.168 27.328 78.632 26.96 80.264 26.96C82.264 26.96 83.976 27.488 85.4 28.544C86.824 29.6 87.776 31.04 88.256 32.864H83.744C83.408 32.16 82.928 31.624 82.304 31.256C81.696 30.888 81 30.704 80.216 30.704C78.952 30.704 77.928 31.144 77.144 32.024C76.36 32.904 75.968 34.08 75.968 35.552C75.968 37.024 76.36 38.2 77.144 39.08C77.928 39.96 78.952 40.4 80.216 40.4C81 40.4 81.696 40.216 82.304 39.848C82.928 39.48 83.408 38.944 83.744 38.24H88.256C87.776 40.064 86.824 41.504 85.4 42.56C83.976 43.6 82.264 44.12 80.264 44.12C78.632 44.12 77.168 43.76 75.872 43.04C74.592 42.304 73.592 41.288 72.872 39.992C72.152 38.696 71.792 37.216 71.792 35.552ZM95.7853 44.192C94.4733 44.192 93.2893 43.912 92.2333 43.352C91.1933 42.792 90.3693 41.992 89.7613 40.952C89.1693 39.912 88.8733 38.696 88.8733 37.304C88.8733 35.928 89.1773 34.72 89.7853 33.68C90.3933 32.624 91.2253 31.816 92.2813 31.256C93.3373 30.696 94.5213 30.416 95.8333 30.416C97.1453 30.416 98.3293 30.696 99.3853 31.256C100.441 31.816 101.273 32.624 101.881 33.68C102.489 34.72 102.793 35.928 102.793 37.304C102.793 38.68 102.481 39.896 101.857 40.952C101.249 41.992 100.409 42.792 99.3373 43.352C98.2813 43.912 97.0973 44.192 95.7853 44.192ZM95.7853 40.64C96.5693 40.64 97.2333 40.352 97.7773 39.776C98.3373 39.2 98.6173 38.376 98.6173 37.304C98.6173 36.232 98.3453 35.408 97.8013 34.832C97.2733 34.256 96.6173 33.968 95.8333 33.968C95.0333 33.968 94.3693 34.256 93.8413 34.832C93.3133 35.392 93.0493 36.216 93.0493 37.304C93.0493 38.376 93.3053 39.2 93.8173 39.776C94.3453 40.352 95.0013 40.64 95.7853 40.64ZM103.075 37.28C103.075 35.904 103.331 34.696 103.843 33.656C104.371 32.616 105.083 31.816 105.979 31.256C106.875 30.696 107.875 30.416 108.979 30.416C109.859 30.416 110.659 30.6 111.379 30.968C112.115 31.336 112.691 31.832 113.107 32.456V26.24H117.211V44H113.107V42.08C112.723 42.72 112.171 43.232 111.451 43.616C110.747 44 109.923 44.192 108.979 44.192C107.875 44.192 106.875 43.912 105.979 43.352C105.083 42.776 104.371 41.968 103.843 40.928C103.331 39.872 103.075 38.656 103.075 37.28ZM113.107 37.304C113.107 36.28 112.819 35.472 112.243 34.88C111.683 34.288 110.995 33.992 110.179 33.992C109.363 33.992 108.667 34.288 108.091 34.88C107.531 35.456 107.251 36.256 107.251 37.28C107.251 38.304 107.531 39.12 108.091 39.728C108.667 40.32 109.363 40.616 110.179 40.616C110.995 40.616 111.683 40.32 112.243 39.728C112.819 39.136 113.107 38.328 113.107 37.304ZM131.724 37.088C131.724 37.472 131.7 37.872 131.652 38.288H122.364C122.428 39.12 122.692 39.76 123.156 40.208C123.636 40.64 124.22 40.856 124.908 40.856C125.932 40.856 126.644 40.424 127.044 39.56H131.412C131.188 40.44 130.78 41.232 130.188 41.936C129.612 42.64 128.884 43.192 128.004 43.592C127.124 43.992 126.14 44.192 125.052 44.192C123.74 44.192 122.572 43.912 121.548 43.352C120.524 42.792 119.724 41.992 119.148 40.952C118.572 39.912 118.284 38.696 118.284 37.304C118.284 35.912 118.564 34.696 119.124 33.656C119.7 32.616 120.5 31.816 121.524 31.256C122.548 30.696 123.724 30.416 125.052 30.416C126.348 30.416 127.5 30.688 128.508 31.232C129.516 31.776 130.3 32.552 130.86 33.56C131.436 34.568 131.724 35.744 131.724 37.088ZM127.524 36.008C127.524 35.304 127.284 34.744 126.804 34.328C126.324 33.912 125.724 33.704 125.004 33.704C124.316 33.704 123.732 33.904 123.252 34.304C122.788 34.704 122.5 35.272 122.388 36.008H127.524Z" fill="white"/>
<path d="M39.6397 31.7687L34.5622 36L39.6397 40.2312C39.7435 40.3143 39.8297 40.4173 39.8932 40.5341C39.9568 40.6509 39.9964 40.7792 40.0097 40.9115C40.0231 41.0438 40.0099 41.1775 39.971 41.3046C39.932 41.4317 39.8681 41.5499 39.783 41.652C39.6979 41.7542 39.5933 41.8383 39.4752 41.8996C39.3572 41.9608 39.2281 41.9979 39.0956 42.0086C38.9631 42.0194 38.8297 42.0036 38.7034 41.9622C38.577 41.9208 38.4602 41.8546 38.3597 41.7675L32.3597 36.7675C32.2471 36.6736 32.1565 36.5562 32.0944 36.4234C32.0322 36.2907 32 36.1459 32 35.9993C32 35.8528 32.0322 35.708 32.0944 35.5753C32.1565 35.4425 32.2471 35.3251 32.3597 35.2312L38.3597 30.2312C38.5636 30.0615 38.8265 29.9797 39.0907 30.0038C39.3549 30.028 39.5987 30.1561 39.7685 30.36C39.9382 30.5639 40.02 30.8268 39.9958 31.091C39.9717 31.3552 39.8436 31.599 39.6397 31.7687ZM61.6397 35.2312L55.6397 30.2312C55.5387 30.1472 55.4222 30.0838 55.2968 30.0448C55.1714 30.0058 55.0395 29.9919 54.9087 30.0038C54.7778 30.0158 54.6507 30.0534 54.5344 30.1145C54.4181 30.1756 54.315 30.259 54.231 30.36C54.0612 30.5639 53.9794 30.8268 54.0036 31.091C54.0277 31.3552 54.1558 31.599 54.3597 31.7687L59.4372 36L54.3597 40.2312C54.2559 40.3143 54.1697 40.4173 54.1062 40.5341C54.0426 40.6509 54.003 40.7792 53.9897 40.9115C53.9764 41.0438 53.9895 41.1775 54.0284 41.3046C54.0674 41.4317 54.1313 41.5499 54.2164 41.652C54.3015 41.7542 54.4061 41.8383 54.5242 41.8996C54.6422 41.9608 54.7713 41.9979 54.9038 42.0086C55.0363 42.0194 55.1697 42.0036 55.296 41.9622C55.4224 41.9208 55.5392 41.8546 55.6397 41.7675L61.6397 36.7675C61.7523 36.6736 61.8429 36.5562 61.905 36.4234C61.9672 36.2907 61.9994 36.1459 61.9994 35.9993C61.9994 35.8528 61.9672 35.708 61.905 35.5753C61.8429 35.4425 61.7523 35.3251 61.6397 35.2312ZM51.341 24.06C51.2175 24.0152 51.0864 23.9951 50.9552 24.0009C50.8241 24.0068 50.6953 24.0384 50.5763 24.094C50.4573 24.1496 50.3505 24.2281 50.2618 24.325C50.1732 24.4219 50.1045 24.5353 50.0597 24.6587L42.0597 46.6587C42.0147 46.7822 41.9945 46.9134 42.0002 47.0448C42.006 47.1761 42.0375 47.305 42.0931 47.4241C42.1488 47.5432 42.2273 47.6502 42.3243 47.739C42.4213 47.8277 42.5349 47.8964 42.6584 47.9412C42.768 47.9802 42.8834 48 42.9997 48C43.2051 48 43.4054 47.9368 43.5736 47.8189C43.7418 47.701 43.8696 47.5343 43.9397 47.3412L51.9397 25.3412C51.9845 25.2178 52.0046 25.0867 51.9987 24.9555C51.9929 24.8243 51.9613 24.6956 51.9057 24.5766C51.8501 24.4576 51.7716 24.3508 51.6747 24.2621C51.5778 24.1735 51.4644 24.1048 51.341 24.06Z" fill="white"/>
<defs>
<filter id="filter0_d_534_1749" x="0" y="0" width="167" height="76" filterUnits="userSpaceOnUse" color-interpolation-filters="sRGB">
<feFlood flood-opacity="0" result="BackgroundImageFix"/>
<feColorMatrix in="SourceAlpha" type="matrix" values="0 0 0 0 0 0 0 0 0 0 0 0 0 0 0 0 0 0 127 0" result="hardAlpha"/>
<feOffset dx="1" dy="2"/>
<feGaussianBlur stdDeviation="5"/>
<feComposite in2="hardAlpha" operator="out"/>
<feColorMatrix type="matrix" values="0 0 0 0 0 0 0 0 0 0 0 0 0 0 0 0 0 0 0.25 0"/>
<feBlend mode="normal" in2="BackgroundImageFix" result="effect1_dropShadow_534_1749"/>
<feBlend mode="normal" in="SourceGraphic" in2="effect1_dropShadow_534_1749" result="shape"/>
</filter>
<linearGradient id="paint0_linear_534_1749" x1="39" y1="71.5" x2="146" y2="8" gradientUnits="userSpaceOnUse">
<stop stop-color="#1B6B45"/>
<stop offset="1" stop-color="#21A44E"/>
</linearGradient>
</defs>
</svg>
