<svg width="171" height="76" viewBox="0 0 171 76" fill="none" xmlns="http://www.w3.org/2000/svg">
<g filter="url(#filter0_d_534_1742)">
<rect x="9" y="8" width="151" height="56" rx="12" fill="url(#paint0_linear_534_1742)"/>
</g>
<path d="M78.8 27.152C80.576 27.152 82.128 27.504 83.456 28.208C84.784 28.912 85.808 29.904 86.528 31.184C87.264 32.448 87.632 33.912 87.632 35.576C87.632 37.224 87.264 38.688 86.528 39.968C85.808 41.248 84.776 42.24 83.432 42.944C82.104 43.648 80.56 44 78.8 44H72.488V27.152H78.8ZM78.536 40.448C80.088 40.448 81.296 40.024 82.16 39.176C83.024 38.328 83.456 37.128 83.456 35.576C83.456 34.024 83.024 32.816 82.16 31.952C81.296 31.088 80.088 30.656 78.536 30.656H76.592V40.448H78.536ZM101.47 37.088C101.47 37.472 101.446 37.872 101.398 38.288H92.1095C92.1735 39.12 92.4375 39.76 92.9015 40.208C93.3815 40.64 93.9655 40.856 94.6535 40.856C95.6775 40.856 96.3895 40.424 96.7895 39.56H101.158C100.934 40.44 100.526 41.232 99.9335 41.936C99.3575 42.64 98.6295 43.192 97.7495 43.592C96.8695 43.992 95.8855 44.192 94.7975 44.192C93.4855 44.192 92.3175 43.912 91.2935 43.352C90.2695 42.792 89.4695 41.992 88.8935 40.952C88.3175 39.912 88.0295 38.696 88.0295 37.304C88.0295 35.912 88.3095 34.696 88.8695 33.656C89.4455 32.616 90.2455 31.816 91.2695 31.256C92.2935 30.696 93.4695 30.416 94.7975 30.416C96.0935 30.416 97.2455 30.688 98.2535 31.232C99.2615 31.776 100.046 32.552 100.606 33.56C101.182 34.568 101.47 35.744 101.47 37.088ZM97.2695 36.008C97.2695 35.304 97.0295 34.744 96.5495 34.328C96.0695 33.912 95.4695 33.704 94.7495 33.704C94.0615 33.704 93.4775 33.904 92.9975 34.304C92.5335 34.704 92.2455 35.272 92.1335 36.008H97.2695ZM119.643 30.464C121.307 30.464 122.627 30.968 123.603 31.976C124.595 32.984 125.091 34.384 125.091 36.176V44H121.011V36.728C121.011 35.864 120.779 35.2 120.315 34.736C119.867 34.256 119.243 34.016 118.443 34.016C117.643 34.016 117.011 34.256 116.547 34.736C116.099 35.2 115.875 35.864 115.875 36.728V44H111.795V36.728C111.795 35.864 111.563 35.2 111.099 34.736C110.651 34.256 110.027 34.016 109.227 34.016C108.427 34.016 107.795 34.256 107.331 34.736C106.883 35.2 106.659 35.864 106.659 36.728V44H102.555V30.608H106.659V32.288C107.075 31.728 107.619 31.288 108.291 30.968C108.963 30.632 109.723 30.464 110.571 30.464C111.579 30.464 112.475 30.68 113.259 31.112C114.059 31.544 114.683 32.16 115.131 32.96C115.595 32.224 116.227 31.624 117.027 31.16C117.827 30.696 118.699 30.464 119.643 30.464ZM132.977 44.192C131.665 44.192 130.481 43.912 129.425 43.352C128.385 42.792 127.561 41.992 126.953 40.952C126.361 39.912 126.065 38.696 126.065 37.304C126.065 35.928 126.369 34.72 126.977 33.68C127.585 32.624 128.417 31.816 129.473 31.256C130.529 30.696 131.713 30.416 133.025 30.416C134.337 30.416 135.521 30.696 136.577 31.256C137.633 31.816 138.465 32.624 139.073 33.68C139.681 34.72 139.985 35.928 139.985 37.304C139.985 38.68 139.673 39.896 139.049 40.952C138.441 41.992 137.601 42.792 136.529 43.352C135.473 43.912 134.289 44.192 132.977 44.192ZM132.977 40.64C133.761 40.64 134.425 40.352 134.969 39.776C135.529 39.2 135.809 38.376 135.809 37.304C135.809 36.232 135.537 35.408 134.993 34.832C134.465 34.256 133.809 33.968 133.025 33.968C132.225 33.968 131.561 34.256 131.033 34.832C130.505 35.392 130.241 36.216 130.241 37.304C130.241 38.376 130.497 39.2 131.009 39.776C131.537 40.352 132.193 40.64 132.977 40.64Z" fill="white"/>
<path d="M59.9137 35.595C59.87 35.4963 58.8112 33.1475 56.4575 30.7937C53.3212 27.6575 49.36 26 45 26C40.64 26 36.6787 27.6575 33.5425 30.7937C31.1887 33.1475 30.125 35.5 30.0862 35.595C30.0294 35.7229 30 35.8613 30 36.0012C30 36.1412 30.0294 36.2796 30.0862 36.4075C30.13 36.5062 31.1887 38.8538 33.5425 41.2075C36.6787 44.3425 40.64 46 45 46C49.36 46 53.3212 44.3425 56.4575 41.2075C58.8112 38.8538 59.87 36.5062 59.9137 36.4075C59.9706 36.2796 60 36.1412 60 36.0012C60 35.8613 59.9706 35.7229 59.9137 35.595ZM45 44C41.1525 44 37.7912 42.6012 35.0087 39.8438C33.867 38.7084 32.8957 37.4137 32.125 36C32.8955 34.5862 33.8669 33.2915 35.0087 32.1562C37.7912 29.3988 41.1525 28 45 28C48.8475 28 52.2087 29.3988 54.9912 32.1562C56.1352 33.2912 57.1086 34.5859 57.8812 36C56.98 37.6825 53.0537 44 45 44ZM45 30C43.8133 30 42.6533 30.3519 41.6666 31.0112C40.6799 31.6705 39.9108 32.6075 39.4567 33.7039C39.0026 34.8003 38.8838 36.0067 39.1153 37.1705C39.3468 38.3344 39.9182 39.4035 40.7573 40.2426C41.5965 41.0818 42.6656 41.6532 43.8294 41.8847C44.9933 42.1162 46.1997 41.9974 47.2961 41.5433C48.3924 41.0892 49.3295 40.3201 49.9888 39.3334C50.6481 38.3467 51 37.1867 51 36C50.9983 34.4092 50.3657 32.884 49.2408 31.7592C48.1159 30.6343 46.5908 30.0017 45 30ZM45 40C44.2089 40 43.4355 39.7654 42.7777 39.3259C42.1199 38.8864 41.6072 38.2616 41.3045 37.5307C41.0017 36.7998 40.9225 35.9956 41.0768 35.2196C41.2312 34.4437 41.6122 33.731 42.1716 33.1716C42.731 32.6122 43.4437 32.2312 44.2196 32.0769C44.9956 31.9225 45.7998 32.0017 46.5307 32.3045C47.2616 32.6072 47.8863 33.1199 48.3259 33.7777C48.7654 34.4355 49 35.2089 49 36C49 37.0609 48.5786 38.0783 47.8284 38.8284C47.0783 39.5786 46.0609 40 45 40Z" fill="white"/>
<defs>
<filter id="filter0_d_534_1742" x="0" y="0" width="171" height="76" filterUnits="userSpaceOnUse" color-interpolation-filters="sRGB">
<feFlood flood-opacity="0" result="BackgroundImageFix"/>
<feColorMatrix in="SourceAlpha" type="matrix" values="0 0 0 0 0 0 0 0 0 0 0 0 0 0 0 0 0 0 127 0" result="hardAlpha"/>
<feOffset dx="1" dy="2"/>
<feGaussianBlur stdDeviation="5"/>
<feComposite in2="hardAlpha" operator="out"/>
<feColorMatrix type="matrix" values="0 0 0 0 0 0 0 0 0 0 0 0 0 0 0 0 0 0 0.25 0"/>
<feBlend mode="normal" in2="BackgroundImageFix" result="effect1_dropShadow_534_1742"/>
<feBlend mode="normal" in="SourceGraphic" in2="effect1_dropShadow_534_1742" result="shape"/>
</filter>
<linearGradient id="paint0_linear_534_1742" x1="53" y1="64" x2="140.5" y2="8" gradientUnits="userSpaceOnUse">
<stop stop-color="#5A67D8"/>
<stop offset="1" stop-color="#626FDF"/>
</linearGradient>
</defs>
</svg>
