<svg width="362" height="100" viewBox="0 0 362 100" fill="none" xmlns="http://www.w3.org/2000/svg">
<rect x="68" y="14" width="294" height="69" rx="12" fill="#161616"/>
<path d="M120.952 54.52V58H118.864C117.376 58 116.216 57.64 115.384 56.92C114.552 56.184 114.136 54.992 114.136 53.344V48.016H112.504V44.608H114.136V41.344H118.24V44.608H120.928V48.016H118.24V53.392C118.24 53.792 118.336 54.08 118.528 54.256C118.72 54.432 119.04 54.52 119.488 54.52H120.952ZM135.862 51.088C135.862 51.472 135.838 51.872 135.79 52.288H126.502C126.566 53.12 126.83 53.76 127.294 54.208C127.774 54.64 128.358 54.856 129.046 54.856C130.07 54.856 130.782 54.424 131.182 53.56H135.55C135.326 54.44 134.918 55.232 134.326 55.936C133.75 56.64 133.022 57.192 132.142 57.592C131.262 57.992 130.278 58.192 129.19 58.192C127.878 58.192 126.71 57.912 125.686 57.352C124.662 56.792 123.862 55.992 123.286 54.952C122.71 53.912 122.422 52.696 122.422 51.304C122.422 49.912 122.702 48.696 123.262 47.656C123.838 46.616 124.638 45.816 125.662 45.256C126.686 44.696 127.862 44.416 129.19 44.416C130.486 44.416 131.638 44.688 132.646 45.232C133.654 45.776 134.438 46.552 134.998 47.56C135.574 48.568 135.862 49.744 135.862 51.088ZM131.662 50.008C131.662 49.304 131.422 48.744 130.942 48.328C130.462 47.912 129.862 47.704 129.142 47.704C128.454 47.704 127.87 47.904 127.39 48.304C126.926 48.704 126.638 49.272 126.526 50.008H131.662ZM143.475 58.192C142.307 58.192 141.267 57.992 140.355 57.592C139.443 57.192 138.723 56.648 138.195 55.96C137.667 55.256 137.371 54.472 137.307 53.608H141.363C141.411 54.072 141.627 54.448 142.011 54.736C142.395 55.024 142.867 55.168 143.427 55.168C143.939 55.168 144.331 55.072 144.603 54.88C144.891 54.672 145.035 54.408 145.035 54.088C145.035 53.704 144.835 53.424 144.435 53.248C144.035 53.056 143.387 52.848 142.491 52.624C141.531 52.4 140.731 52.168 140.091 51.928C139.451 51.672 138.899 51.28 138.435 50.752C137.971 50.208 137.739 49.48 137.739 48.568C137.739 47.8 137.947 47.104 138.363 46.48C138.795 45.84 139.419 45.336 140.235 44.968C141.067 44.6 142.051 44.416 143.187 44.416C144.867 44.416 146.187 44.832 147.147 45.664C148.123 46.496 148.683 47.6 148.827 48.976H145.035C144.971 48.512 144.763 48.144 144.411 47.872C144.075 47.6 143.627 47.464 143.067 47.464C142.587 47.464 142.219 47.56 141.963 47.752C141.707 47.928 141.579 48.176 141.579 48.496C141.579 48.88 141.779 49.168 142.179 49.36C142.595 49.552 143.235 49.744 144.099 49.936C145.091 50.192 145.899 50.448 146.523 50.704C147.147 50.944 147.691 51.344 148.155 51.904C148.635 52.448 148.883 53.184 148.899 54.112C148.899 54.896 148.675 55.6 148.227 56.224C147.795 56.832 147.163 57.312 146.331 57.664C145.515 58.016 144.563 58.192 143.475 58.192ZM158.874 54.52V58H156.786C155.298 58 154.138 57.64 153.306 56.92C152.474 56.184 152.058 54.992 152.058 53.344V48.016H150.426V44.608H152.058V41.344H156.162V44.608H158.85V48.016H156.162V53.392C156.162 53.792 156.258 54.08 156.45 54.256C156.642 54.432 156.962 54.52 157.41 54.52H158.874ZM173.784 51.088C173.784 51.472 173.76 51.872 173.712 52.288H164.424C164.488 53.12 164.752 53.76 165.216 54.208C165.696 54.64 166.28 54.856 166.968 54.856C167.992 54.856 168.704 54.424 169.104 53.56H173.472C173.248 54.44 172.84 55.232 172.248 55.936C171.672 56.64 170.944 57.192 170.064 57.592C169.184 57.992 168.2 58.192 167.112 58.192C165.8 58.192 164.632 57.912 163.608 57.352C162.584 56.792 161.784 55.992 161.208 54.952C160.632 53.912 160.344 52.696 160.344 51.304C160.344 49.912 160.624 48.696 161.184 47.656C161.76 46.616 162.56 45.816 163.584 45.256C164.608 44.696 165.784 44.416 167.112 44.416C168.408 44.416 169.56 44.688 170.568 45.232C171.576 45.776 172.36 46.552 172.92 47.56C173.496 48.568 173.784 49.744 173.784 51.088ZM169.584 50.008C169.584 49.304 169.344 48.744 168.864 48.328C168.384 47.912 167.784 47.704 167.064 47.704C166.376 47.704 165.792 47.904 165.312 48.304C164.848 48.704 164.56 49.272 164.448 50.008H169.584ZM189.293 41.968C191.181 41.968 192.829 42.328 194.237 43.048C195.645 43.752 196.725 44.752 197.477 46.048C198.245 47.328 198.629 48.808 198.629 50.488C198.629 51.848 198.389 53.112 197.909 54.28C197.445 55.448 196.749 56.384 195.821 57.088C194.909 57.776 193.821 58.12 192.557 58.12C191.709 58.12 191.005 57.952 190.445 57.616C189.901 57.28 189.533 56.808 189.341 56.2C188.893 56.824 188.317 57.312 187.613 57.664C186.909 58 186.141 58.168 185.309 58.168C184.125 58.168 183.189 57.816 182.501 57.112C181.829 56.392 181.493 55.416 181.493 54.184C181.493 53.016 181.733 51.92 182.213 50.896C182.693 49.856 183.357 49.024 184.205 48.4C185.053 47.776 186.005 47.464 187.061 47.464C188.405 47.464 189.317 47.944 189.797 48.904L190.013 47.632H193.325L192.269 53.656C192.221 53.944 192.197 54.2 192.197 54.424C192.197 55.128 192.509 55.48 193.133 55.48C193.901 55.48 194.485 54.992 194.885 54.016C195.301 53.024 195.509 51.888 195.509 50.608C195.509 48.768 194.925 47.328 193.757 46.288C192.605 45.248 190.981 44.728 188.885 44.728C187.093 44.728 185.461 45.16 183.989 46.024C182.533 46.888 181.389 48.072 180.557 49.576C179.725 51.064 179.309 52.704 179.309 54.496C179.309 56.432 179.869 57.936 180.989 59.008C182.125 60.08 183.709 60.616 185.741 60.616C187.325 60.616 188.741 60.328 189.989 59.752L190.637 62.368C189.069 63.056 187.309 63.4 185.357 63.4C183.533 63.4 181.925 63.048 180.533 62.344C179.157 61.64 178.093 60.64 177.341 59.344C176.589 58.048 176.213 56.536 176.213 54.808C176.213 52.392 176.781 50.208 177.917 48.256C179.053 46.288 180.613 44.752 182.597 43.648C184.597 42.528 186.829 41.968 189.293 41.968ZM186.653 55.216C187.101 55.216 187.517 55.08 187.901 54.808C188.301 54.536 188.613 54.176 188.837 53.728C189.077 53.264 189.197 52.768 189.197 52.24C189.197 51.696 189.045 51.256 188.741 50.92C188.437 50.568 188.021 50.392 187.493 50.392C186.789 50.392 186.205 50.696 185.741 51.304C185.277 51.912 185.045 52.632 185.045 53.464C185.045 53.992 185.181 54.416 185.453 54.736C185.725 55.056 186.125 55.216 186.653 55.216ZM206.959 44.416C207.903 44.416 208.727 44.608 209.431 44.992C210.151 45.376 210.703 45.88 211.087 46.504V44.608H215.191V57.976C215.191 59.208 214.943 60.32 214.447 61.312C213.967 62.32 213.223 63.12 212.215 63.712C211.223 64.304 209.983 64.6 208.495 64.6C206.511 64.6 204.903 64.128 203.671 63.184C202.439 62.256 201.735 60.992 201.559 59.392H205.615C205.743 59.904 206.047 60.304 206.527 60.592C207.007 60.896 207.599 61.048 208.303 61.048C209.151 61.048 209.823 60.8 210.319 60.304C210.831 59.824 211.087 59.048 211.087 57.976V56.08C210.687 56.704 210.135 57.216 209.431 57.616C208.727 58 207.903 58.192 206.959 58.192C205.855 58.192 204.855 57.912 203.959 57.352C203.063 56.776 202.351 55.968 201.823 54.928C201.311 53.872 201.055 52.656 201.055 51.28C201.055 49.904 201.311 48.696 201.823 47.656C202.351 46.616 203.063 45.816 203.959 45.256C204.855 44.696 205.855 44.416 206.959 44.416ZM211.087 51.304C211.087 50.28 210.799 49.472 210.223 48.88C209.663 48.288 208.975 47.992 208.159 47.992C207.343 47.992 206.647 48.288 206.071 48.88C205.511 49.456 205.231 50.256 205.231 51.28C205.231 52.304 205.511 53.12 206.071 53.728C206.647 54.32 207.343 54.616 208.159 54.616C208.975 54.616 209.663 54.32 210.223 53.728C210.799 53.136 211.087 52.328 211.087 51.304ZM235.248 44.464C236.912 44.464 238.232 44.968 239.208 45.976C240.2 46.984 240.696 48.384 240.696 50.176V58H236.616V50.728C236.616 49.864 236.384 49.2 235.92 48.736C235.472 48.256 234.848 48.016 234.048 48.016C233.248 48.016 232.616 48.256 232.152 48.736C231.704 49.2 231.48 49.864 231.48 50.728V58H227.4V50.728C227.4 49.864 227.168 49.2 226.704 48.736C226.256 48.256 225.632 48.016 224.832 48.016C224.032 48.016 223.4 48.256 222.936 48.736C222.488 49.2 222.264 49.864 222.264 50.728V58H218.16V44.608H222.264V46.288C222.68 45.728 223.224 45.288 223.896 44.968C224.568 44.632 225.328 44.464 226.176 44.464C227.184 44.464 228.08 44.68 228.864 45.112C229.664 45.544 230.288 46.16 230.736 46.96C231.2 46.224 231.832 45.624 232.632 45.16C233.432 44.696 234.304 44.464 235.248 44.464ZM242.75 51.28C242.75 49.904 243.006 48.696 243.518 47.656C244.046 46.616 244.758 45.816 245.654 45.256C246.55 44.696 247.55 44.416 248.654 44.416C249.598 44.416 250.422 44.608 251.126 44.992C251.846 45.376 252.398 45.88 252.782 46.504V44.608H256.886V58H252.782V56.104C252.382 56.728 251.822 57.232 251.102 57.616C250.398 58 249.574 58.192 248.63 58.192C247.542 58.192 246.55 57.912 245.654 57.352C244.758 56.776 244.046 55.968 243.518 54.928C243.006 53.872 242.75 52.656 242.75 51.28ZM252.782 51.304C252.782 50.28 252.494 49.472 251.918 48.88C251.358 48.288 250.67 47.992 249.854 47.992C249.038 47.992 248.342 48.288 247.766 48.88C247.206 49.456 246.926 50.256 246.926 51.28C246.926 52.304 247.206 53.12 247.766 53.728C248.342 54.32 249.038 54.616 249.854 54.616C250.67 54.616 251.358 54.32 251.918 53.728C252.494 53.136 252.782 52.328 252.782 51.304ZM261.919 43.216C261.199 43.216 260.607 43.008 260.143 42.592C259.695 42.16 259.471 41.632 259.471 41.008C259.471 40.368 259.695 39.84 260.143 39.424C260.607 38.992 261.199 38.776 261.919 38.776C262.623 38.776 263.199 38.992 263.647 39.424C264.111 39.84 264.343 40.368 264.343 41.008C264.343 41.632 264.111 42.16 263.647 42.592C263.199 43.008 262.623 43.216 261.919 43.216ZM263.959 44.608V58H259.855V44.608H263.959ZM271.037 40.24V58H266.933V40.24H271.037ZM275.931 58.192C275.211 58.192 274.619 57.984 274.155 57.568C273.707 57.136 273.483 56.608 273.483 55.984C273.483 55.344 273.707 54.808 274.155 54.376C274.619 53.944 275.211 53.728 275.931 53.728C276.635 53.728 277.211 53.944 277.659 54.376C278.123 54.808 278.355 55.344 278.355 55.984C278.355 56.608 278.123 57.136 277.659 57.568C277.211 57.984 276.635 58.192 275.931 58.192ZM279.969 51.304C279.969 49.912 280.249 48.696 280.809 47.656C281.385 46.616 282.177 45.816 283.185 45.256C284.209 44.696 285.377 44.416 286.689 44.416C288.369 44.416 289.769 44.856 290.889 45.736C292.025 46.616 292.769 47.856 293.121 49.456H288.753C288.385 48.432 287.673 47.92 286.617 47.92C285.865 47.92 285.265 48.216 284.817 48.808C284.369 49.384 284.145 50.216 284.145 51.304C284.145 52.392 284.369 53.232 284.817 53.824C285.265 54.4 285.865 54.688 286.617 54.688C287.673 54.688 288.385 54.176 288.753 53.152H293.121C292.769 54.72 292.025 55.952 290.889 56.848C289.753 57.744 288.353 58.192 286.689 58.192C285.377 58.192 284.209 57.912 283.185 57.352C282.177 56.792 281.385 55.992 280.809 54.952C280.249 53.912 279.969 52.696 279.969 51.304ZM301.412 58.192C300.1 58.192 298.916 57.912 297.86 57.352C296.82 56.792 295.996 55.992 295.388 54.952C294.796 53.912 294.5 52.696 294.5 51.304C294.5 49.928 294.804 48.72 295.412 47.68C296.02 46.624 296.852 45.816 297.908 45.256C298.964 44.696 300.148 44.416 301.46 44.416C302.772 44.416 303.956 44.696 305.012 45.256C306.068 45.816 306.9 46.624 307.508 47.68C308.116 48.72 308.42 49.928 308.42 51.304C308.42 52.68 308.108 53.896 307.484 54.952C306.876 55.992 306.036 56.792 304.964 57.352C303.908 57.912 302.724 58.192 301.412 58.192ZM301.412 54.64C302.196 54.64 302.86 54.352 303.404 53.776C303.964 53.2 304.244 52.376 304.244 51.304C304.244 50.232 303.972 49.408 303.428 48.832C302.9 48.256 302.244 47.968 301.46 47.968C300.66 47.968 299.996 48.256 299.468 48.832C298.94 49.392 298.676 50.216 298.676 51.304C298.676 52.376 298.932 53.2 299.444 53.776C299.972 54.352 300.628 54.64 301.412 54.64ZM327.685 44.464C329.349 44.464 330.669 44.968 331.645 45.976C332.637 46.984 333.133 48.384 333.133 50.176V58H329.053V50.728C329.053 49.864 328.821 49.2 328.357 48.736C327.909 48.256 327.285 48.016 326.485 48.016C325.685 48.016 325.053 48.256 324.589 48.736C324.141 49.2 323.917 49.864 323.917 50.728V58H319.837V50.728C319.837 49.864 319.605 49.2 319.141 48.736C318.693 48.256 318.069 48.016 317.269 48.016C316.469 48.016 315.837 48.256 315.373 48.736C314.925 49.2 314.701 49.864 314.701 50.728V58H310.597V44.608H314.701V46.288C315.117 45.728 315.661 45.288 316.333 44.968C317.005 44.632 317.765 44.464 318.613 44.464C319.621 44.464 320.517 44.68 321.301 45.112C322.101 45.544 322.725 46.16 323.173 46.96C323.637 46.224 324.269 45.624 325.069 45.16C325.869 44.696 326.741 44.464 327.685 44.464Z" fill="#5E8FD8"/>
<rect width="100" height="100" rx="50" fill="#121212"/>
<path d="M25.1576 28.6035L45.0069 50.7999C45.5708 51.4342 46.2628 51.9415 47.0374 52.2883C47.8119 52.6351 48.6512 52.8135 49.4998 52.8117C50.3474 52.8068 51.1846 52.6253 51.9582 52.279C52.7317 51.9326 53.4246 51.4289 53.9928 50.7999L73.5068 28.9388C73.6367 28.7495 73.8252 28.6081 74.0433 28.5365C73.1925 28.1852 72.2814 28.003 71.361 28H27.6387C26.7399 28.0028 25.8508 28.1852 25.0234 28.5365C25.0596 28.5729 25.1067 28.5964 25.1576 28.6035Z" fill="#5E8FD8"/>
<path d="M76.9941 31.3529C76.925 31.5906 76.7846 31.8013 76.5918 31.9564L57.1448 53.7505C56.1806 54.8235 55.002 55.6823 53.6852 56.2714C52.3684 56.8605 50.9426 57.1668 49.5001 57.1705C48.0562 57.1752 46.6278 56.8727 45.3097 56.2831C43.9917 55.6934 42.8142 54.8301 41.8554 53.7505L22.0731 31.6211L21.939 31.487C21.3169 32.5188 20.992 33.7023 21.0001 34.907V64.9493C21.0037 65.8258 21.18 66.693 21.5191 67.5012C21.8581 68.3094 22.3533 69.0429 22.9762 69.6595C23.599 70.2762 24.3374 70.7639 25.149 71.0949C25.9606 71.4258 26.8295 71.5934 27.706 71.5881H71.2941C72.1706 71.5934 73.0395 71.4258 73.8511 71.0949C74.6627 70.7639 75.4011 70.2762 76.024 69.6595C76.6469 69.0429 77.142 68.3094 77.4811 67.5012C77.8201 66.693 77.9965 65.8258 78 64.9493V34.907C77.9946 33.6528 77.6468 32.4239 76.9941 31.3529Z" fill="#5E8FD8"/>
</svg>
