<svg width="90" height="90" viewBox="0 0 100 100" fill="none" xmlns="http://www.w3.org/2000/svg">
<rect width="100" height="100" rx="50" fill="#121212"/>
<g clip-path="url(#clip0_512_1597)">
<path fill-rule="evenodd" clip-rule="evenodd" d="M50.0001 27.7778C37.7223 27.7778 27.7778 37.7222 27.7778 50C27.7778 59.8333 34.1389 68.1389 42.9723 71.0833C44.0834 71.2778 44.5001 70.6111 44.5001 70.0278C44.5001 69.5 44.4723 67.75 44.4723 65.8889C38.8889 66.9167 37.4445 64.5278 37.0001 63.2778C36.7501 62.6389 35.6667 60.6667 34.7223 60.1389C33.9445 59.7222 32.8334 58.6944 34.6945 58.6667C36.4445 58.6389 37.6945 60.2778 38.1112 60.9444C40.1112 64.3055 43.3056 63.3611 44.5834 62.7778C44.7778 61.3333 45.3612 60.3611 46.0001 59.8055C41.0556 59.25 35.8889 57.3333 35.8889 48.8333C35.8889 46.4167 36.7501 44.4167 38.1667 42.8611C37.9445 42.3055 37.1667 40.0278 38.3889 36.9722C38.3889 36.9722 40.2501 36.3889 44.5001 39.25C46.2778 38.75 48.1667 38.5 50.0556 38.5C51.9445 38.5 53.8334 38.75 55.6112 39.25C59.8612 36.3611 61.7223 36.9722 61.7223 36.9722C62.9445 40.0278 62.1667 42.3055 61.9445 42.8611C63.3612 44.4167 64.2223 46.3889 64.2223 48.8333C64.2223 57.3611 59.0278 59.25 54.0834 59.8055C54.8889 60.5 55.5834 61.8333 55.5834 63.9167C55.5834 66.8889 55.5556 69.2778 55.5556 70.0278C55.5556 70.6111 55.9723 71.3055 57.0834 71.0833C65.8612 68.1389 72.2223 59.8055 72.2223 50C72.2223 37.7222 62.2778 27.7778 50.0001 27.7778Z" fill="#5E8FD8"/>
</g>
<defs>
<clipPath id="clip0_512_1597">
<rect width="44.4444" height="44.4444" fill="white" transform="translate(27.7778 27.7778)"/>
</clipPath>
</defs>
</svg>
