<svg width="48" height="48" viewBox="0 0 48 48" fill="none" xmlns="http://www.w3.org/2000/svg">
<g clip-path="url(#clip0_538_1960)">
<path d="M37.5 7.5H10.5C9.70435 7.5 8.94129 7.81607 8.37868 8.37868C7.81607 8.94129 7.5 9.70435 7.5 10.5V37.5C7.5 38.2956 7.81607 39.0587 8.37868 39.6213C8.94129 40.1839 9.70435 40.5 10.5 40.5H37.5C38.2956 40.5 39.0587 40.1839 39.6213 39.6213C40.1839 39.0587 40.5 38.2956 40.5 37.5V10.5C40.5 9.70435 40.1839 8.94129 39.6213 8.37868C39.0587 7.81607 38.2956 7.5 37.5 7.5ZM37.5 22.5H25.5V10.5H37.5V22.5ZM22.5 10.5V22.5H10.5V10.5H22.5ZM10.5 25.5H22.5V37.5H10.5V25.5ZM37.5 37.5H25.5V25.5H37.5V37.5Z" fill="#C9C9C9"/>
</g>
<defs>
<clipPath id="clip0_538_1960">
<rect width="48" height="48" fill="white"/>
</clipPath>
</defs>
</svg>
