<svg width="187" height="187" viewBox="0 0 187 187" fill="none" xmlns="http://www.w3.org/2000/svg">
<circle cx="93.5" cy="93.5" r="93.5" fill="#D5CECE" fill-opacity="0.28"/>
<path d="M112.25 90.25H95.75V73.75C95.75 73.0207 95.4603 72.3212 94.9445 71.8055C94.4288 71.2897 93.7293 71 93 71C92.2707 71 91.5712 71.2897 91.0555 71.8055C90.5397 72.3212 90.25 73.0207 90.25 73.75V90.25H73.75C73.0207 90.25 72.3212 90.5397 71.8055 91.0555C71.2897 91.5712 71 92.2707 71 93C71 93.7293 71.2897 94.4288 71.8055 94.9445C72.3212 95.4603 73.0207 95.75 73.75 95.75H90.25V112.25C90.25 112.979 90.5397 113.679 91.0555 114.195C91.5712 114.71 92.2707 115 93 115C93.7293 115 94.4288 114.71 94.9445 114.195C95.4603 113.679 95.75 112.979 95.75 112.25V95.75H112.25C112.979 95.75 113.679 95.4603 114.195 94.9445C114.71 94.4288 115 93.7293 115 93C115 92.2707 114.71 91.5712 114.195 91.0555C113.679 90.5397 112.979 90.25 112.25 90.25Z" fill="white"/>
</svg>
