<svg width="90" height="90" viewBox="0 0 100 100" fill="none" xmlns="http://www.w3.org/2000/svg">
<rect width="100" height="100" rx="50" fill="#121212"/>
<g clip-path="url(#clip0_512_1580)">
<path fill-rule="evenodd" clip-rule="evenodd" d="M67.2775 35.1805C67.2762 34.6924 67.1302 34.2156 66.8581 33.8104C66.5859 33.4051 66.1998 33.0897 65.7484 32.9038C65.297 32.7179 64.8007 32.67 64.3221 32.7661C63.8435 32.8622 63.4041 33.0979 63.0595 33.4436C62.7148 33.7893 62.4803 34.2293 62.3856 34.7082C62.2909 35.1871 62.3403 35.6832 62.5275 36.1341C62.7147 36.5849 63.0312 36.9701 63.4373 37.2411C63.8433 37.5121 64.3205 37.6567 64.8086 37.6566C65.4639 37.654 66.0914 37.3921 66.5541 36.9281C67.0167 36.4641 67.2768 35.8358 67.2775 35.1805ZM50.0172 37.6593C47.5773 37.6569 45.1915 38.3782 43.1617 39.732C41.1318 41.0858 39.5491 43.0113 38.6138 45.2648C37.6784 47.5183 37.4325 49.9986 37.9071 52.3918C38.3817 54.7851 39.5555 56.9839 41.2799 58.7099C43.0044 60.436 45.2021 61.6118 47.595 62.0886C49.9878 62.5653 52.4683 62.3217 54.7227 61.3884C56.977 60.4551 58.9039 58.8742 60.2595 56.8456C61.6152 54.817 62.3387 52.4319 62.3385 49.992C62.3401 48.3729 62.0226 46.7694 61.4041 45.2732C60.7856 43.7769 59.8783 42.4173 58.7339 41.2719C57.5896 40.1265 56.2308 39.218 54.7351 38.5981C53.2394 37.9782 51.6362 37.6592 50.0172 37.6593ZM72.2083 50.2051C72.2083 53.4802 72.2459 56.7559 72.198 60.0301C72.1598 62.732 71.2363 65.3467 69.5692 67.4733C67.9022 69.5999 65.5836 71.121 62.969 71.8033C62.0089 72.0591 61.02 72.191 60.0264 72.1956C53.3474 72.1985 46.6676 72.2686 39.9902 72.173C37.7773 72.1935 35.6025 71.5973 33.7094 70.4512C31.8164 69.3051 30.2799 67.6545 29.2722 65.6843C28.2915 63.9379 27.7859 61.9648 27.8059 59.9619C27.798 53.3007 27.7375 46.6388 27.8256 39.979C27.8044 37.7941 28.3845 35.6455 29.5023 33.7681C30.6202 31.8907 32.2327 30.3569 34.1637 29.3344C35.9987 28.2835 38.0835 27.7478 40.1979 27.7839C46.8336 27.7856 53.4697 27.7626 60.1049 27.7961C62.9731 27.7997 65.7415 28.8499 67.8903 30.7498C70.0649 32.5769 71.522 35.1153 72.0032 37.9145C72.1343 38.6675 72.2004 39.4304 72.2006 40.1947C72.2211 43.5313 72.2083 46.8686 72.2083 50.2051Z" fill="#5E8FD8"/>
<path fill-rule="evenodd" clip-rule="evenodd" d="M49.9951 42.0634C51.5649 42.0624 53.0997 42.527 54.4055 43.3984C55.7113 44.2697 56.7293 45.5088 57.3308 46.9587C57.9324 48.4087 58.0904 50.0045 57.7849 51.5443C57.4795 53.0841 56.7243 54.4987 55.6148 55.6093C54.5053 56.7198 53.0914 57.4764 51.5519 57.7834C50.0124 58.0903 48.4165 57.9338 46.9659 57.3337C45.5153 56.7336 44.2753 55.7167 43.4027 54.4118C42.5301 53.1069 42.064 51.5725 42.0635 50.0027C42.063 48.9606 42.2677 47.9286 42.666 46.9657C43.0644 46.0027 43.6485 45.1276 44.385 44.3904C45.1215 43.6531 45.996 43.0682 46.9586 42.6689C47.9212 42.2697 48.953 42.0639 49.9951 42.0634Z" fill="#5E8FD8"/>
</g>
<defs>
<clipPath id="clip0_512_1580">
<rect width="44.4444" height="44.4444" fill="white" transform="translate(27.7778 27.7778)"/>
</clipPath>
</defs>
</svg>
