<svg width="90" height="90" viewBox="0 0 100 100" fill="none" xmlns="http://www.w3.org/2000/svg">
<rect width="100" height="100" rx="50" fill="#121212"/>
<g clip-path="url(#clip0_512_1581)">
<path d="M38.1235 42.076H29.2012C28.8052 42.076 28.4844 42.397 28.4844 42.7928V71.4563C28.4844 71.8523 28.8052 72.1732 29.2012 72.1732H38.1235C38.5195 72.1732 38.8404 71.8523 38.8404 71.4563V42.7928C38.8404 42.397 38.5195 42.076 38.1235 42.076Z" fill="#5E8FD8"/>
<path d="M33.6654 27.8267C30.419 27.8267 27.7778 30.4649 27.7778 33.7078C27.7778 36.9521 30.419 39.5914 33.6654 39.5914C36.9093 39.5914 39.5483 36.952 39.5483 33.7078C39.5484 30.4649 36.9093 27.8267 33.6654 27.8267Z" fill="#5E8FD8"/>
<path d="M60.8176 41.3636C57.2341 41.3636 54.5851 42.9041 52.9784 44.6545V42.7928C52.9784 42.397 52.6575 42.076 52.2615 42.076H43.7168C43.3209 42.076 43 42.397 43 42.7928V71.4563C43 71.8523 43.3209 72.1732 43.7168 72.1732H52.6196C53.0156 72.1732 53.3365 71.8523 53.3365 71.4563V57.2746C53.3365 52.4956 54.6346 50.6338 57.9659 50.6338C61.594 50.6338 61.8823 53.6185 61.8823 57.5204V71.4565C61.8823 71.8525 62.2032 72.1733 62.5991 72.1733H71.5052C71.9012 72.1733 72.2221 71.8525 72.2221 71.4565V55.7341C72.2221 48.628 70.8671 41.3636 60.8176 41.3636Z" fill="#5E8FD8"/>
</g>
<defs>
<clipPath id="clip0_512_1581">
<rect width="44.4444" height="44.4444" fill="white" transform="translate(27.7778 27.7778)"/>
</clipPath>
</defs>
</svg>
